<svg width="34" height="34" viewBox="0 0 34 34" fill="none" xmlns="http://www.w3.org/2000/svg">
<path d="M16.9531 0C7.58953 0 0 7.58953 0 16.9531C0 26.3167 7.58953 33.9062 16.9531 33.9062C26.3167 33.9062 33.9062 26.3167 33.9062 16.9531C33.9062 7.58953 26.3167 0 16.9531 0ZM31.6914 16.4062H25.1333C25.0731 13.9836 24.6422 11.6692 23.8777 9.55063C25.3542 8.93484 26.7192 8.11562 27.9639 7.14766C30.1766 9.63156 31.5602 12.857 31.6914 16.4062ZM16.3483 31.6881C14.5305 30.1744 13.0058 28.2089 11.8902 25.9263C13.3219 25.4789 14.8389 25.2339 16.4062 25.1836V31.6903C16.3866 31.6903 16.368 31.6892 16.3483 31.6881ZM17.5558 2.21813C19.6186 3.93531 21.3019 6.23547 22.4405 8.91844C20.8808 9.45109 19.2237 9.76062 17.4989 9.81531V2.21484C17.5197 2.21594 17.5372 2.21703 17.5558 2.21813ZM19.378 2.40406C22.3967 2.90609 25.1048 4.31594 27.2136 6.35687C26.0684 7.23516 24.8172 7.97891 23.4642 8.54219C22.4689 6.18297 21.0722 4.09719 19.378 2.40406ZM16.4062 2.21484V9.81531C14.6814 9.75953 13.0233 9.45109 11.4647 8.91844C12.6033 6.23547 14.2866 3.93531 16.3494 2.21813C16.3691 2.21703 16.3866 2.21594 16.4062 2.21484ZM10.4409 8.54328C9.09016 7.98 7.83781 7.23625 6.69266 6.35797C8.80031 4.31703 11.5095 2.90719 14.5283 2.40516C12.833 4.09719 11.4373 6.18297 10.4409 8.54328ZM11.0523 9.92688C12.7389 10.512 14.5359 10.8533 16.4062 10.9102V16.4062H9.86672C9.92578 14.1159 10.3316 11.9273 11.0523 9.92688ZM16.4062 17.5V24.0898C14.6814 24.1423 13.0134 24.4245 11.4417 24.9309C10.4945 22.6756 9.93563 20.1633 9.86672 17.5H16.4062ZM14.5283 31.5022C11.8234 31.0527 9.36687 29.8747 7.36969 28.1641C8.44703 27.417 9.61187 26.7848 10.8566 26.3047C11.8103 28.2822 13.0583 30.0377 14.5283 31.5022ZM17.5 31.6914V25.1847C19.0662 25.235 20.5844 25.48 22.0161 25.9273C20.8994 28.21 19.3758 30.1755 17.558 31.6892C17.5394 31.6892 17.5197 31.6903 17.5 31.6914ZM23.0497 26.3047C24.2933 26.7848 25.457 27.4181 26.5366 28.1641C24.5394 29.8736 22.0828 31.0527 19.378 31.5022C20.848 30.0377 22.0948 28.2822 23.0497 26.3047ZM22.4645 24.9309C20.8917 24.4245 19.2237 24.1423 17.5 24.0898V17.5H24.0395C23.9706 20.1633 23.4106 22.6756 22.4645 24.9309ZM17.5 16.4062V10.9102C19.3692 10.8533 21.1663 10.5131 22.8539 9.92797C23.5736 11.9284 23.9794 14.117 24.0395 16.4073H17.5V16.4062ZM5.94344 7.14766C7.18813 8.11562 8.55312 8.93484 10.0286 9.55063C9.26406 11.6692 8.83313 13.9836 8.77297 16.4062H2.21484C2.34609 12.857 3.72969 9.63156 5.94344 7.14766ZM2.21484 17.5H8.77297C8.84078 20.2945 9.42484 22.9337 10.4169 25.3061C9.03109 25.8464 7.73938 26.5661 6.54719 27.4181C3.97906 24.862 2.35813 21.3675 2.21484 17.5ZM27.3591 27.417C26.1669 26.5661 24.8752 25.8453 23.4883 25.305C24.4814 22.9327 25.0644 20.2934 25.1333 17.4989H31.6914C31.5481 21.3675 29.9261 24.862 27.3591 27.417Z" fill="#F35653"/>
</svg>
