<svg width="35" height="23" viewBox="0 0 35 23" fill="none" xmlns="http://www.w3.org/2000/svg">
<path d="M34.9622 11.255C34.9513 11.2091 34.9578 11.1599 34.9403 11.115C34.9338 11.0964 34.9173 11.0866 34.9108 11.0691C34.8998 11.0428 34.902 11.0133 34.8878 10.9881C31.7159 4.91674 24.8111 0.566895 17.5267 0.566895C10.2413 0.566895 3.3375 4.91018 0.163438 10.9805C0.149219 11.0056 0.151406 11.0352 0.140469 11.0614C0.132812 11.0789 0.1175 11.0888 0.110938 11.1074C0.0934375 11.1522 0.1 11.2014 0.0890625 11.2474C0.069375 11.3294 0.0507812 11.4081 0.0507812 11.4924C0.0507812 11.5766 0.0704687 11.6542 0.0890625 11.7374C0.1 11.7833 0.0934375 11.8325 0.110938 11.8774C0.1175 11.896 0.133906 11.9058 0.140469 11.9233C0.151406 11.9495 0.149219 11.9791 0.163438 12.0042C3.33641 18.0756 10.2413 22.4255 17.5267 22.4255C24.8111 22.4255 31.7159 18.0822 34.8878 12.0119C34.9031 11.9867 34.9009 11.9572 34.9108 11.931C34.9173 11.9135 34.9338 11.9036 34.9403 11.885C34.9578 11.8402 34.9513 11.791 34.9622 11.745C34.9808 11.6619 35.0005 11.5831 35.0005 11.5C35.0005 11.4169 34.9808 11.3371 34.9622 11.255ZM17.5256 20.2369C11.3842 20.2369 5.37187 16.7467 2.37609 11.4924C5.38828 6.23143 11.3919 2.7533 17.5256 2.7533C23.6648 2.7533 29.6783 6.24455 32.6741 11.4978C29.6619 16.7599 23.6594 20.2369 17.5256 20.2369Z" fill="#F35653"/>
<path d="M17.5252 7.12402C17.523 7.12402 17.5208 7.12512 17.5186 7.12512C15.1069 7.12949 13.1523 9.08402 13.1523 11.4957C13.1523 11.7976 13.3973 12.0426 13.6992 12.0426C14 12.0426 14.245 11.7976 14.245 11.4957C14.245 9.68887 15.7161 8.21777 17.5252 8.21777V8.21668C17.8259 8.21668 18.0698 7.97168 18.0698 7.6709C18.0698 7.36793 17.827 7.12402 17.5252 7.12402Z" fill="#F35653"/>
<path d="M17.5 3.84375C13.2705 3.84375 9.84375 7.27156 9.84375 11.5C9.84375 15.7284 13.2716 19.1562 17.5 19.1562C21.7273 19.1562 25.1562 15.7273 25.1562 11.5C25.1562 7.27047 21.7273 3.84375 17.5 3.84375ZM17.5 18.0625C13.8808 18.0625 10.9375 15.1192 10.9375 11.5C10.9375 7.88078 13.8808 4.9375 17.5 4.9375C21.1192 4.9375 24.0625 7.88078 24.0625 11.5C24.0625 15.1192 21.1192 18.0625 17.5 18.0625Z" fill="#F35653"/>
</svg>
