<svg width="32" height="32" viewBox="0 0 32 32" fill="none" xmlns="http://www.w3.org/2000/svg">
<circle cx="16" cy="16" r="15" stroke="white" stroke-width="2"/>
<path d="M19 8H13C10.239 8 8 10.239 8 13V19C8 21.761 10.239 24 13 24H19C21.761 24 24 21.761 24 19V13C24 10.239 21.761 8 19 8ZM22.5 19C22.5 20.93 20.93 22.5 19 22.5H13C11.07 22.5 9.5 20.93 9.5 19V13C9.5 11.07 11.07 9.5 13 9.5H19C20.93 9.5 22.5 11.07 22.5 13V19Z" fill="white"/>
<path d="M16 12C13.791 12 12 13.791 12 16C12 18.209 13.791 20 16 20C18.209 20 20 18.209 20 16C20 13.791 18.209 12 16 12ZM16 18.5C14.622 18.5 13.5 17.378 13.5 16C13.5 14.621 14.622 13.5 16 13.5C17.378 13.5 18.5 14.621 18.5 16C18.5 17.378 17.378 18.5 16 18.5Z" fill="white"/>
<path d="M20.3 12.233C20.5944 12.233 20.833 11.9944 20.833 11.7C20.833 11.4056 20.5944 11.167 20.3 11.167C20.0057 11.167 19.767 11.4056 19.767 11.7C19.767 11.9944 20.0057 12.233 20.3 12.233Z" fill="white"/>
</svg>
