<svg width="32" height="32" viewBox="0 0 32 32" fill="none" xmlns="http://www.w3.org/2000/svg">
<g clip-path="url(#clip0)">
<path d="M24.9046 20.1399C24.8828 20.0929 24.8625 20.0539 24.8436 20.0227C24.5313 19.4603 23.9345 18.7699 23.0536 17.9514L23.0349 17.9326L23.0256 17.9235L23.0162 17.914H23.0068C22.6069 17.5329 22.3538 17.2766 22.2477 17.1454C22.0537 16.8955 22.0103 16.6425 22.1163 16.3862C22.1912 16.1925 22.4726 15.7835 22.9598 15.1586C23.216 14.8274 23.419 14.562 23.5689 14.362C24.6499 12.925 25.1185 12.0066 24.9747 11.6067L24.9189 11.5133C24.8814 11.457 24.7845 11.4055 24.6285 11.3586C24.4721 11.3118 24.2723 11.304 24.0285 11.3352L21.3295 11.3539C21.2858 11.3384 21.2234 11.3398 21.142 11.3586C21.0608 11.3774 21.0201 11.3868 21.0201 11.3868L20.9732 11.4103L20.9359 11.4385C20.9046 11.4571 20.8703 11.4899 20.8327 11.5368C20.7954 11.5835 20.7642 11.6383 20.7392 11.7008C20.4454 12.4568 20.1113 13.1597 19.7363 13.8094C19.5051 14.1968 19.2928 14.5326 19.0989 14.8169C18.9053 15.1011 18.7428 15.3105 18.6117 15.4447C18.4804 15.5791 18.3619 15.6867 18.2555 15.768C18.1493 15.8494 18.0682 15.8837 18.012 15.8712C17.9557 15.8586 17.9027 15.8461 17.8525 15.8336C17.7651 15.7774 17.6948 15.7009 17.6418 15.604C17.5885 15.5072 17.5527 15.3853 17.5339 15.2385C17.5153 15.0916 17.5043 14.9652 17.5011 14.8589C17.4982 14.7528 17.4995 14.6027 17.5059 14.409C17.5124 14.2153 17.5153 14.0842 17.5153 14.0154C17.5153 13.778 17.5199 13.5202 17.5292 13.2422C17.5387 12.9642 17.5463 12.7439 17.5527 12.5816C17.5591 12.4192 17.562 12.2473 17.562 12.0661C17.562 11.8849 17.551 11.7428 17.5292 11.6397C17.5077 11.5366 17.4746 11.4367 17.4311 11.3397C17.3872 11.2429 17.3231 11.168 17.2389 11.1148C17.1546 11.0617 17.0498 11.0196 16.925 10.9882C16.5938 10.9133 16.1721 10.8728 15.6597 10.8665C14.4976 10.854 13.7509 10.929 13.4198 11.0915C13.2886 11.1601 13.1699 11.2539 13.0637 11.3725C12.9512 11.51 12.9355 11.5851 13.0167 11.5974C13.3917 11.6536 13.6571 11.7879 13.8133 12.0003L13.8696 12.1129C13.9134 12.1941 13.9571 12.3379 14.0009 12.544C14.0446 12.7502 14.0728 12.9782 14.0852 13.228C14.1164 13.6842 14.1164 14.0747 14.0852 14.3995C14.0539 14.7245 14.0243 14.9775 13.9961 15.1587C13.968 15.3398 13.9258 15.4867 13.8696 15.5991C13.8133 15.7116 13.7759 15.7803 13.7571 15.8052C13.7383 15.8302 13.7227 15.8459 13.7103 15.8521C13.6291 15.8832 13.5446 15.8991 13.4572 15.8991C13.3697 15.8991 13.2635 15.8553 13.1386 15.7678C13.0137 15.6802 12.8841 15.56 12.7497 15.4069C12.6154 15.2538 12.4638 15.0398 12.2951 14.7649C12.1265 14.4901 11.9515 14.1652 11.7703 13.7903L11.6204 13.5185C11.5267 13.3436 11.3987 13.0889 11.2362 12.7547C11.0736 12.4204 10.93 12.097 10.8051 11.7846C10.7551 11.6534 10.6801 11.5535 10.5802 11.4848L10.5333 11.4566C10.5021 11.4316 10.452 11.4051 10.3834 11.3769C10.3146 11.3487 10.2428 11.3285 10.1678 11.3161L7.59991 11.3347C7.33751 11.3347 7.15947 11.3942 7.06572 11.5129L7.0282 11.569C7.00945 11.6003 7 11.6503 7 11.7191C7 11.7878 7.01874 11.8722 7.05626 11.972C7.43113 12.8531 7.83878 13.7028 8.27923 14.5212C8.71968 15.3397 9.10243 15.999 9.42723 16.4985C9.7521 16.9984 10.0832 17.4702 10.4207 17.9137C10.7581 18.3573 10.9814 18.6416 11.0907 18.7665C11.2001 18.8916 11.286 18.9852 11.3485 19.0477L11.5828 19.2725C11.7328 19.4225 11.953 19.6021 12.2435 19.8114C12.5341 20.0208 12.8558 20.2269 13.2088 20.4302C13.5619 20.6331 13.9726 20.7986 14.4413 20.9267C14.9099 21.0549 15.3659 21.1063 15.8096 21.0815H16.8874C17.1059 21.0626 17.2716 20.9939 17.3841 20.8752L17.4214 20.8283C17.4465 20.791 17.4699 20.733 17.4916 20.6551C17.5135 20.577 17.5244 20.491 17.5244 20.3974C17.518 20.1288 17.5385 19.8867 17.5852 19.6711C17.6319 19.4557 17.6852 19.2932 17.7447 19.1838C17.8042 19.0745 17.8714 18.9823 17.9461 18.9075C18.0211 18.8326 18.0744 18.7872 18.1057 18.7715C18.1369 18.7558 18.1617 18.7451 18.1805 18.7387C18.3304 18.6888 18.5069 18.7372 18.7101 18.8841C18.9132 19.0309 19.1037 19.2122 19.2819 19.4277C19.4599 19.6434 19.6739 19.8853 19.9238 20.1539C20.1738 20.4226 20.3924 20.6224 20.5798 20.7538L20.7671 20.8662C20.8923 20.9413 21.0547 21.01 21.2547 21.0725C21.4543 21.1349 21.6292 21.1505 21.7794 21.1193L24.1785 21.0819C24.4158 21.0819 24.6004 21.0426 24.7314 20.9647C24.8626 20.8866 24.9406 20.8005 24.9657 20.7069C24.9908 20.6133 24.9922 20.507 24.9705 20.3881C24.9483 20.2696 24.9264 20.1867 24.9046 20.1399Z" fill="white"/>
</g>
<circle cx="16" cy="16" r="15" stroke="white" stroke-width="2"/>
<defs>
<clipPath id="clip0">
<rect width="18" height="18" fill="white" transform="translate(7 7)"/>
</clipPath>
</defs>
</svg>
