<svg width="45" height="45" viewBox="0 0 45 45" fill="none" xmlns="http://www.w3.org/2000/svg">
<path d="M34.5801 27.114C33.3347 28.3594 32.0174 29.4852 30.6161 30.4792C28.1971 32.2277 25.5863 33.5929 22.8798 34.575L10.4248 22.12C11.4069 19.4135 12.7721 16.8027 14.5206 14.3837C15.5146 12.9824 16.6404 11.6651 17.8858 10.4196C24.9756 3.32987 34.5682 0.22809 43.8376 1.16224C44.7717 10.4316 41.6699 20.0242 34.5801 27.114Z" stroke="#434345" stroke-width="2" stroke-miterlimit="10" stroke-linecap="round" stroke-linejoin="round"/>
<path d="M29.8262 41.5203C26.5208 44.8257 21.1556 44.8257 17.8503 41.5203C16.4012 40.0712 15.5868 38.227 15.4072 36.3228C17.9461 36.0593 20.461 35.4605 22.8802 34.5743C25.5867 33.5922 28.1975 32.227 30.6165 30.4785C33.1076 33.7839 32.8441 38.5024 29.8262 41.5203Z" stroke="#434345" stroke-width="2" stroke-miterlimit="10" stroke-linecap="round" stroke-linejoin="round"/>
<path d="M8.67658 29.5923C6.77239 29.4127 4.92813 28.5983 3.47901 27.1492C0.173662 23.8439 0.173662 18.4787 3.47901 15.1733C6.49696 12.1554 11.2155 11.8919 14.5208 14.383C12.7723 16.802 11.4071 19.4128 10.425 22.1193C9.53881 24.5385 8.94002 27.0534 8.67658 29.5923Z" stroke="#434345" stroke-width="2" stroke-miterlimit="10" stroke-linecap="round" stroke-linejoin="round"/>
<path d="M34.6162 15.1745C35.9391 13.8517 35.9391 11.7069 34.6162 10.3841C33.2934 9.06128 31.1487 9.06128 29.8259 10.3841C28.503 11.7069 28.503 13.8517 29.8259 15.1745C31.1487 16.4973 33.2934 16.4973 34.6162 15.1745Z" stroke="#434345" stroke-width="2" stroke-miterlimit="10" stroke-linecap="round" stroke-linejoin="round"/>
</svg>
