<svg width="35" height="30" viewBox="0 0 35 30" fill="none" xmlns="http://www.w3.org/2000/svg">
<path fill-rule="evenodd" clip-rule="evenodd" d="M17.4348 5C10.694 5 5 8.41973 5 12.4667C5 12.7611 5.25322 13 5.56522 13C5.87722 13 6.13043 12.7611 6.13043 12.4667C6.13043 9.0576 11.413 6.06667 17.4348 6.06667C17.7457 6.06667 18 5.82773 18 5.53333C18 5.23893 17.7468 5 17.4348 5Z" fill="#F35653"/>
<path fill-rule="evenodd" clip-rule="evenodd" d="M17.5 0C7.83453 0 0 5.75679 0 12.8571C0 17.2789 3.03953 21.1779 7.665 23.4921C7.665 23.5211 7.65625 23.5404 7.65625 23.5714C7.65625 25.4925 6.19172 27.5604 5.5475 28.6457C5.54859 28.6457 5.54969 28.6457 5.54969 28.6457C5.49828 28.7636 5.46875 28.8932 5.46875 29.0293C5.46875 29.565 5.91172 30 6.45969 30C6.5625 30 6.74297 29.9732 6.73859 29.985C10.1566 29.4364 13.3766 26.3604 14.1247 25.4689C15.2173 25.6264 16.3439 25.7143 17.5 25.7143C27.1633 25.7143 35 19.9575 35 12.8571C35 5.75679 27.1644 0 17.5 0ZM17.5 23.5714C16.497 23.5714 15.4678 23.4964 14.4419 23.3496C14.3358 23.3325 14.2297 23.3271 14.1247 23.3271C13.475 23.3271 12.8527 23.61 12.4338 24.1093C11.9656 24.6675 10.6334 25.9136 9.05953 26.8296C9.48609 25.8707 9.81969 24.7961 9.84266 23.6882C9.84922 23.6196 9.8525 23.55 9.8525 23.4911C9.8525 22.6854 9.39203 21.9493 8.66031 21.5829C4.60687 19.5557 2.1875 16.2932 2.1875 12.8571C2.1875 6.94929 9.05625 2.14286 17.5 2.14286C25.9416 2.14286 32.8125 6.94929 32.8125 12.8571C32.8125 18.765 25.9427 23.5714 17.5 23.5714Z" fill="#F35653"/>
</svg>
