<svg width="30" height="30" viewBox="0 0 30 30" fill="none" xmlns="http://www.w3.org/2000/svg">
<path d="M16.875 20.625C17.9105 20.625 18.75 19.7855 18.75 18.75C18.75 17.7145 17.9105 16.875 16.875 16.875C15.8395 16.875 15 17.7145 15 18.75C15 19.7855 15.8395 20.625 16.875 20.625Z" fill="#F35653"/>
<path d="M27.1884 12.1875C27.1875 12.1875 27.1875 12.1875 27.1884 12.1875L27.1875 6.5625V6.09375V3.75C27.1875 2.19656 25.9275 0.9375 24.375 0.9375H20.625H5.15625C2.31281 0.9375 0 3.25125 0 6.09375V24.8438C0 27.6863 2.31281 30 5.15625 30H22.0312C24.8737 30 27.1875 27.6863 27.1875 24.8438V23.4375C27.1875 23.4375 27.1875 23.4375 27.1884 23.4375C30.9366 20.6241 30.9366 15.0009 27.1884 12.1875ZM5.15625 2.8125H20.625H24.375C24.8916 2.8125 25.3125 3.2325 25.3125 3.75V6.09375V6.5625V9.5475C25.0181 9.4425 24.705 9.375 24.375 9.375H24.3741V8.4375V6.5625V4.6875C24.3741 4.16906 23.9541 3.75 23.4366 3.75H3.74906C3.23156 3.75 2.81156 4.16906 2.81156 4.6875V6.5625V8.38406C2.23312 7.7925 1.875 6.98625 1.875 6.09375C1.875 4.28156 3.34312 2.8125 5.15625 2.8125ZM23.4366 5.625H3.74906V4.6875H23.4366V5.625ZM23.4366 6.5625V7.5H3.74906V6.5625H23.4366ZM23.4366 8.4375V9.375H20.625H5.15625C4.65 9.375 4.1775 9.25125 3.75 9.04688V8.4375H23.4366ZM25.3125 24.8438C25.3125 26.6559 23.8434 28.125 22.0312 28.125H5.15625C3.34312 28.125 1.875 26.6559 1.875 24.8438V10.0678C2.76656 10.8056 3.91031 11.25 5.15625 11.25H20.625H24.375C24.8916 11.25 25.3125 11.67 25.3125 12.1875V14.0625H16.875C14.2856 14.0625 12.1875 16.1606 12.1875 18.75C12.1875 21.3394 14.2866 23.4375 16.875 23.4375H25.3125V24.8438ZM26.5097 21.5625H16.875C15.3244 21.5625 14.0625 20.3006 14.0625 18.75C14.0625 17.1994 15.3244 15.9375 16.875 15.9375H25.3125C25.8909 15.93 26.4647 15.6497 26.8144 15.1837C26.9119 15.0525 26.9878 14.9053 27.0487 14.7516C27.0572 14.7309 27.0722 14.715 27.0797 14.6934C27.7537 15.5775 28.125 16.6613 28.125 17.8125C28.125 19.2544 27.5428 20.5922 26.5097 21.5625Z" fill="#F35653"/>
</svg>
