<svg width="30" height="30" viewBox="0 0 30 30" fill="none" xmlns="http://www.w3.org/2000/svg">
<path fill-rule="evenodd" clip-rule="evenodd" d="M29.4506 7.11094L23.8256 1.48594C23.4741 1.13438 22.9959 0.9375 22.5 0.9375H2.8125C1.26187 0.9375 0 2.19844 0 3.75V26.25C0 27.8006 1.26187 29.0625 2.8125 29.0625H27.1875C28.7381 29.0625 30 27.8006 30 26.25V8.4375C30 7.93969 29.8022 7.4625 29.4506 7.11094ZM28.125 26.25C28.125 26.7684 27.7059 27.1875 27.1875 27.1875H2.8125C2.29406 27.1875 1.875 26.7684 1.875 26.25V3.75C1.875 3.23156 2.29406 2.8125 2.8125 2.8125H21.5625V6.5625H21.5606C21.5606 8.11594 22.8206 9.375 24.3731 9.375H25.3106H28.125V26.25ZM25.3106 8.4375H24.3731C23.34 8.4375 22.4981 7.59656 22.4981 6.5625H22.5V2.8125L28.125 8.4375H25.3106Z" fill="#F35653"/>
<path fill-rule="evenodd" clip-rule="evenodd" d="M14.5312 7.5H19.2188C19.4766 7.5 19.6875 7.29 19.6875 7.03125C19.6875 6.7725 19.4766 6.5625 19.2188 6.5625H14.5312C14.2725 6.5625 14.0625 6.77156 14.0625 7.03125C14.0625 7.29094 14.2725 7.5 14.5312 7.5Z" fill="#F35653"/>
<path fill-rule="evenodd" clip-rule="evenodd" d="M14.5312 10.3125H19.2188C19.4766 10.3125 19.6875 10.1025 19.6875 9.84375C19.6875 9.585 19.4766 9.375 19.2188 9.375H14.5312C14.2725 9.375 14.0625 9.585 14.0625 9.84375C14.0625 10.1025 14.2725 10.3125 14.5312 10.3125Z" fill="#F35653"/>
<path fill-rule="evenodd" clip-rule="evenodd" d="M14.0625 12.6562C14.0625 12.915 14.2725 13.125 14.5312 13.125H25.7812C26.0391 13.125 26.25 12.915 26.25 12.6562C26.25 12.3975 26.0391 12.1875 25.7812 12.1875H14.5312C14.2725 12.1875 14.0625 12.3966 14.0625 12.6562Z" fill="#F35653"/>
<path fill-rule="evenodd" clip-rule="evenodd" d="M25.7812 17.8125H4.21875C3.96 17.8125 3.75 18.0216 3.75 18.2812C3.75 18.5391 3.96 18.75 4.21875 18.75H25.7812C26.0391 18.75 26.25 18.5391 26.25 18.2812C26.25 18.0216 26.0391 17.8125 25.7812 17.8125Z" fill="#F35653"/>
<path fill-rule="evenodd" clip-rule="evenodd" d="M25.7812 20.625H4.21875C3.96 20.625 3.75 20.8341 3.75 21.0938C3.75 21.3516 3.96 21.5625 4.21875 21.5625H25.7812C26.0391 21.5625 26.25 21.3516 26.25 21.0938C26.25 20.8341 26.0391 20.625 25.7812 20.625Z" fill="#F35653"/>
<path fill-rule="evenodd" clip-rule="evenodd" d="M25.7812 23.4375H4.21875C3.96 23.4375 3.75 23.6466 3.75 23.9062C3.75 24.1641 3.96 24.375 4.21875 24.375H25.7812C26.0391 24.375 26.25 24.1641 26.25 23.9062C26.25 23.6466 26.0391 23.4375 25.7812 23.4375Z" fill="#F35653"/>
<path fill-rule="evenodd" clip-rule="evenodd" d="M25.7812 15H4.21875C3.96 15 3.75 15.2091 3.75 15.4688C3.75 15.7284 3.96 15.9375 4.21875 15.9375H25.7812C26.0391 15.9375 26.25 15.7275 26.25 15.4688C26.25 15.21 26.0391 15 25.7812 15Z" fill="#F35653"/>
<path fill-rule="evenodd" clip-rule="evenodd" d="M4.6875 13.125H11.25C11.7684 13.125 12.1875 12.7059 12.1875 12.1875V6.5625C12.1875 6.04406 11.7684 5.625 11.25 5.625H4.6875C4.16906 5.625 3.75 6.04406 3.75 6.5625V12.1875C3.75 12.705 4.16906 13.125 4.6875 13.125ZM5.625 7.5H10.3125V11.25H5.625V7.5Z" fill="#F35653"/>
</svg>
